<mxfile host="app.diagrams.net" agent="Mozilla/5.0 (Windows NT 10.0; Win64; x64) AppleWebKit/537.36 (KHTML, like Gecko) Chrome/131.0.0.0 Safari/537.36" version="25.0.3">
  <diagram name="หน้า-1" id="-fdADPlz3b6ZUg3hSfGE">
    <mxGraphModel dx="1034" dy="446" grid="1" gridSize="10" guides="1" tooltips="1" connect="1" arrows="1" fold="1" page="1" pageScale="1" pageWidth="827" pageHeight="1169" math="0" shadow="0">
      <root>
        <mxCell id="0" />
        <mxCell id="1" parent="0" />
        <mxCell id="a60q31Hj3tMYG7mlxa7v-3" value="" style="edgeStyle=orthogonalEdgeStyle;rounded=0;orthogonalLoop=1;jettySize=auto;html=1;" edge="1" parent="1" source="a60q31Hj3tMYG7mlxa7v-1" target="a60q31Hj3tMYG7mlxa7v-2">
          <mxGeometry relative="1" as="geometry" />
        </mxCell>
        <mxCell id="a60q31Hj3tMYG7mlxa7v-1" value="start" style="strokeWidth=2;html=1;shape=mxgraph.flowchart.start_1;whiteSpace=wrap;" vertex="1" parent="1">
          <mxGeometry x="364" y="60" width="100" height="60" as="geometry" />
        </mxCell>
        <mxCell id="a60q31Hj3tMYG7mlxa7v-5" value="" style="edgeStyle=orthogonalEdgeStyle;rounded=0;orthogonalLoop=1;jettySize=auto;html=1;" edge="1" parent="1" source="a60q31Hj3tMYG7mlxa7v-2" target="a60q31Hj3tMYG7mlxa7v-4">
          <mxGeometry relative="1" as="geometry" />
        </mxCell>
        <mxCell id="a60q31Hj3tMYG7mlxa7v-2" value="กำหนดตัวแปร float x1 , x2&lt;div&gt;y1,y2&amp;nbsp;&lt;/div&gt;&lt;div&gt;float midx, midy&lt;/div&gt;" style="whiteSpace=wrap;html=1;strokeWidth=2;" vertex="1" parent="1">
          <mxGeometry x="312" y="190" width="204" height="60" as="geometry" />
        </mxCell>
        <mxCell id="a60q31Hj3tMYG7mlxa7v-8" value="" style="edgeStyle=orthogonalEdgeStyle;rounded=0;orthogonalLoop=1;jettySize=auto;html=1;" edge="1" parent="1" source="a60q31Hj3tMYG7mlxa7v-4" target="a60q31Hj3tMYG7mlxa7v-7">
          <mxGeometry relative="1" as="geometry" />
        </mxCell>
        <mxCell id="a60q31Hj3tMYG7mlxa7v-4" value="แสดงคำว่า Input A point :" style="shape=parallelogram;perimeter=parallelogramPerimeter;whiteSpace=wrap;html=1;fixedSize=1;strokeWidth=2;" vertex="1" parent="1">
          <mxGeometry x="316" y="330" width="196" height="60" as="geometry" />
        </mxCell>
        <mxCell id="a60q31Hj3tMYG7mlxa7v-10" value="" style="edgeStyle=orthogonalEdgeStyle;rounded=0;orthogonalLoop=1;jettySize=auto;html=1;" edge="1" parent="1" source="a60q31Hj3tMYG7mlxa7v-7" target="a60q31Hj3tMYG7mlxa7v-9">
          <mxGeometry relative="1" as="geometry" />
        </mxCell>
        <mxCell id="a60q31Hj3tMYG7mlxa7v-7" value="รับค่าจากผู้ใช้" style="shape=parallelogram;perimeter=parallelogramPerimeter;whiteSpace=wrap;html=1;fixedSize=1;strokeWidth=2;" vertex="1" parent="1">
          <mxGeometry x="354" y="470" width="120" height="60" as="geometry" />
        </mxCell>
        <mxCell id="a60q31Hj3tMYG7mlxa7v-12" value="" style="edgeStyle=orthogonalEdgeStyle;rounded=0;orthogonalLoop=1;jettySize=auto;html=1;" edge="1" parent="1" source="a60q31Hj3tMYG7mlxa7v-9" target="a60q31Hj3tMYG7mlxa7v-11">
          <mxGeometry relative="1" as="geometry" />
        </mxCell>
        <mxCell id="a60q31Hj3tMYG7mlxa7v-9" value="แสดงคำว่า Input B point :" style="shape=parallelogram;perimeter=parallelogramPerimeter;whiteSpace=wrap;html=1;fixedSize=1;strokeWidth=2;" vertex="1" parent="1">
          <mxGeometry x="316" y="610" width="196" height="60" as="geometry" />
        </mxCell>
        <mxCell id="a60q31Hj3tMYG7mlxa7v-14" value="" style="edgeStyle=orthogonalEdgeStyle;rounded=0;orthogonalLoop=1;jettySize=auto;html=1;" edge="1" parent="1" source="a60q31Hj3tMYG7mlxa7v-11" target="a60q31Hj3tMYG7mlxa7v-13">
          <mxGeometry relative="1" as="geometry" />
        </mxCell>
        <mxCell id="a60q31Hj3tMYG7mlxa7v-11" value="รับค่าจากผู้ใช้" style="shape=parallelogram;perimeter=parallelogramPerimeter;whiteSpace=wrap;html=1;fixedSize=1;strokeWidth=2;" vertex="1" parent="1">
          <mxGeometry x="354" y="730" width="120" height="60" as="geometry" />
        </mxCell>
        <mxCell id="a60q31Hj3tMYG7mlxa7v-16" value="" style="edgeStyle=orthogonalEdgeStyle;rounded=0;orthogonalLoop=1;jettySize=auto;html=1;" edge="1" parent="1" source="a60q31Hj3tMYG7mlxa7v-13" target="a60q31Hj3tMYG7mlxa7v-15">
          <mxGeometry relative="1" as="geometry" />
        </mxCell>
        <mxCell id="a60q31Hj3tMYG7mlxa7v-13" value="midx = (x1 + y1) /2&lt;div&gt;midy = (x2 + y2)/2&lt;/div&gt;" style="whiteSpace=wrap;html=1;strokeWidth=2;" vertex="1" parent="1">
          <mxGeometry x="354" y="870" width="120" height="60" as="geometry" />
        </mxCell>
        <mxCell id="a60q31Hj3tMYG7mlxa7v-18" value="" style="edgeStyle=orthogonalEdgeStyle;rounded=0;orthogonalLoop=1;jettySize=auto;html=1;" edge="1" parent="1" source="a60q31Hj3tMYG7mlxa7v-15" target="a60q31Hj3tMYG7mlxa7v-17">
          <mxGeometry relative="1" as="geometry" />
        </mxCell>
        <mxCell id="a60q31Hj3tMYG7mlxa7v-15" value="แสดงคำว่า Mid point of A and B is :" style="shape=parallelogram;perimeter=parallelogramPerimeter;whiteSpace=wrap;html=1;fixedSize=1;strokeWidth=2;" vertex="1" parent="1">
          <mxGeometry x="291" y="1010" width="246" height="60" as="geometry" />
        </mxCell>
        <mxCell id="a60q31Hj3tMYG7mlxa7v-17" value="end" style="strokeWidth=2;html=1;shape=mxgraph.flowchart.start_1;whiteSpace=wrap;" vertex="1" parent="1">
          <mxGeometry x="364" y="1150" width="100" height="60" as="geometry" />
        </mxCell>
      </root>
    </mxGraphModel>
  </diagram>
</mxfile>
